<?xml version="1.0" encoding="utf-8"?>
<!-- Generator: Adobe Illustrator 21.0.2, SVG Export Plug-In . SVG Version: 6.00 Build 0)  -->
<svg version="1.1" xmlns="http://www.w3.org/2000/svg" viewBox="0 0 257.5 311.8" xml:space="preserve">
	<path fill="#4c4c4c" d="M 149.35 211.6 C 149.35 203.5 140.15 196.9 128.75 196.9 S 108.15 203.5 108.15 211.6 C 108.15 217.6 113.25 222.8 120.55 225.1 V 299.9 C 120.55 304.4 124.25 308.1 128.75 308.1 S 136.95 304.4 136.95 299.9 V 225.1 C 144.25 222.8 149.35 217.6 149.35 211.6 Z"/>
	<path fill="#ff9800" d="M 257.5 184 C 257.5 236.7 244.2 271.4 217 288.1 C 189.8 303.7 159.7 311.8 128.75 311.8 C 94.9 311.8 66.5 303.1 39.9 285.8 C 13.3 269 0 235.5 0 184 V 0 H 40.9 C 60.8 0 76.9 16.1 76.9 36 V 199.6 C 76.9 233.7 94.3 250.5 128.75 250.5 S 181.1 233.7 181.1 199.6 V 38.2 C 180.5 12.7 192.7 0 218.1 0 H 257.4 V 184 Z"/>
	<path fill="#4c4c4c" d="M 92.8 53.8 A 1 1 0 0 0 120 54.1 A 1 1 0 0 0 92.8 53.8 M 164.8 53.8 A 1 1 1 0 0 137.6 53.8 A 1 1 0 0 0 164.8 53.8 Z"/>
</svg>