<?xml version="1.0" encoding="utf-8"?>
<!-- Generator: Adobe Illustrator 21.0.2, SVG Export Plug-In . SVG Version: 6.00 Build 0)  -->
<svg version="1.1" id="Layer_1" xmlns="http://www.w3.org/2000/svg" xmlns:xlink="http://www.w3.org/1999/xlink" x="0px" y="0px"
	 viewBox="0 0 1242 293" style="enable-background:new 0 0 1242 293;" xml:space="preserve">
<style type="text/css">
	.st0{fill:#4C4C4C;}
	.st1{fill:#FF9800;}
</style>
<path class="st0" d="M330.8,210.3c0-15.1-16.8-27.5-37.6-27.5s-37.6,12.4-37.6,27.5c0,11.3,9.3,21,22.6,25.2v38.1
	c0,8.4,6.9,15.3,15.1,15.3s15.1-6.9,15.1-15.3v-38.1C321.5,231.3,330.8,221.6,330.8,210.3L330.8,210.3z"/>
<path class="st1" d="M410.7,173.5c0,49.4-12.2,81.7-37,97.4c-24.8,14.6-52.5,22.1-80.6,22.1c-31,0-56.9-8.2-81.3-24.4
	c-24.4-15.7-36.5-47.2-36.5-95.2V1.3h37.4c18.2,0,12.8,33.9,12.8,33.9s-16.4,100.5-16.4,153.2c0,76,83.9,76,83.9,76s84.8,0,84.8-76
	c0-49.6-17.3-151.5-17.3-151.5s-9.1-35.7,14.2-35.7h35.9V173.5L410.7,173.5L410.7,173.5z"/>
<ellipse class="st0" cx="273.9" cy="40" rx="9.5" ry="9.7"/>
<ellipse class="st0" cx="312.4" cy="40" rx="9.5" ry="9.7"/>
<path class="st1" d="M47.1,156.9l4.7,0.4c17.7,1.3,46.5,3.8,85.5,7.5v-43H53.5h-4.7l0.2-4.7L51.5,40l0.2-4.7l4.7,0.4l95,7.8V0.4H0.2
	l9.7,284.8h33.2c0.4-14.2,1.1-34.1,1.8-59.6c0.9-29.2,1.6-50,2-64L47.1,156.9z"/>
<path class="st1" d="M487.8,166.2l4.7,0.4l9.7,0.9l2,0.2l1.1,1.6l86.8,115.8h43.6l-72-110.9l-3.5-5.3l6.2-1.3
	c17.3-4.2,32.1-14,44.1-29.5c12-15.5,17.9-33.2,17.9-52.5c0-24.8-8.2-45.6-24.4-61.3C587.9,8.3,566.4,0.4,540,0.4h-99.2l9.5,284.5
	h33.2l4-114L487.8,166.2z M488.9,127l3.5-86.6l0.2-4.7l4.7,0.4l37.9,3.5c13.5,1.1,24.6,6,32.3,14.6c7.8,8.4,11.7,19.3,11.7,31.9
	c0,12.4-4.4,23.3-13.3,31.9c-8.9,8.6-19.5,13.1-31.7,13.1h-41h-4.7L488.9,127z"/>
<path class="st1" d="M700.8,166.2l4.7,0.4l9.7,0.9l2,0.2l1.1,1.6l86.8,115.8h43.6l-72-110.9l-3.5-5.3l6.2-1.3
	c17.3-4.2,32.1-14,44.1-29.5c12-15.5,17.9-33.2,17.9-52.5c0-24.8-8.2-45.6-24.4-61.3c-16.2-15.9-37.6-23.9-64-23.9V0.2h-99.4
	l9.7,284.8h33.2l4-114L700.8,166.2z M701.9,127l3.5-86.6l0.2-4.7l4.7,0.4l37.9,3.5c13.5,1.1,24.6,6,32.3,14.6
	c7.8,8.4,11.7,19.3,11.7,31.9c0,12.4-4.4,23.3-13.3,31.9c-8.9,8.6-19.5,13.1-31.7,13.1h-41h-4.7L701.9,127z"/>
<polygon class="st1" points="1011.9,285.1 1011.9,242.2 915.8,251.5 910.7,251.9 910.9,246.8 919.6,0.4 919.6,0.4 866.9,0.4 
	876.6,285.1 "/>
<polygon class="st1" points="1136.2,171.3 1136.8,170.2 1242,0.4 1177.3,0.4 1119.1,113.8 1115.1,121.5 1111.1,113.8 1053.6,0.4 
	987.8,0.4 1094.7,170.9 1095.4,172 1095.4,173.1 1099,285.1 1132.2,285.1 1136.2,172.4 "/>
</svg>
