<?xml version="1.0" encoding="utf-8"?>
<!-- Generator: Adobe Illustrator 21.0.2, SVG Export Plug-In . SVG Version: 6.00 Build 0)  -->
<svg version="1.1" xmlns="http://www.w3.org/2000/svg" viewBox="0 0 1234.7 515.6" xml:space="preserve">
	<path fill="#4c4c4c" d="M 306.15 301.3 C 306.15 293.2 296.95 286.6 285.55 286.6 S 264.95 293.2 264.95 301.3 C 264.95 307.3 270.05 312.5 277.35 314.8 V 389.6 C 277.35 394.1 281.05 397.8 285.55 397.8 S 293.75 394.1 293.75 389.6 V 314.8 C 301.05 312.5 306.15 307.3 306.15 301.3 Z"/>
	<path fill="#ff9800" d="M 87.4 165.5 H 77 V 401.5 H -0 V 81.6 C -2.9 23.2 31.2 -0 88.5 -0 C 101.8 -0 114 0.6 125.5 2.3 V 65.9 H 105.3 C 87.4 65.9 77.5 73.4 75.8 88.5 V 108.8 H 125.6 V 126.8 C 125.6 147.6 108.3 165.5 87.4 165.5 Z"/>
	<path fill="#ff9800" d="M 414.3 273.7 C 414.3 326.4 401 361.1 373.8 377.8 C 346.6 393.4 316.5 401.5 285.55 401.5 C 251.7 401.5 223.3 392.8 196.7 375.5 C 170.1 358.7 156.8 325.2 156.8 273.7 V 89.8 H 197.7 C 217.6 89.7 233.7 105.8 233.7 125.7 V 289.3 C 233.7 323.4 251.1 340.2 285.55 340.2 S 337.9 323.4 337.9 289.3 V 127.9 C 337.3 102.4 349.5 89.8 374.9 89.7 H 414.2 V 273.7 Z"/>
	<path fill="#ff9800" d="M 440.9 237.9 C 443.2 139 495.9 89.8 598.3 89.8 H 609.3 V 169.6 H 583.3 C 540.5 169.6 519.1 192.2 519.1 236.7 V 401.5 H 441 V 237.9 Z"/>
	<path fill="#ff9800" d="M 638.2 237.9 C 640.5 139 693.2 89.8 795.6 89.8 H 806.6 V 169.6 H 780.6 C 737.8 169.6 716.4 192.2 716.4 236.7 V 401.5 H 638.3 V 237.9 Z"/>
	<path fill="#ff9800" d="M 912.4 40 V 401.5 H 835.4 V 0 H 875.3 C 895.7 2.4 912.4 19.7 912.4 40 Z"/>
	<path fill="#ff9800" d="M 1002.1 450.2 C 1044.3 450.2 1059.4 429.4 1047.2 388.9 L 943.1 89.8 H 1030.5 L 1091.3 302.1 L 1144.5 117 C 1149.1 99.1 1161.3 89.8 1180.9 89.8 H 1234.7 L 1113.8 447.9 C 1095.3 498.2 1076.8 515.6 1013.1 515.6 C 993.4 515.6 983 515 980.7 513.3 V 450.2 H 1002.1 Z"/>
	<path fill="#4c4c4c" d="M 249.6 143.5 A 1 1 0 0 0 276.8 143.8 A 1 1 0 0 0 249.6 143.5 M 321.6 143.5 A 1 1 1 0 0 294.4 143.5 A 1 1 0 0 0 321.6 143.5 Z"/>
</svg>
