<?xml version="1.0" encoding="utf-8"?>
<!-- Generator: Adobe Illustrator 21.0.2, SVG Export Plug-In . SVG Version: 6.00 Build 0)  -->
<svg version="1.1" id="Layer_1" xmlns="http://www.w3.org/2000/svg" xmlns:xlink="http://www.w3.org/1999/xlink" x="0px" y="0px"
	 viewBox="0 0 1440 1440" style="enable-background:new 0 0 1440 1440;" xml:space="preserve">
<style type="text/css">
	.st0{fill:#4C4C4C;}
	.st1{fill:#FF9800;}
</style>
<path class="st0" d="M894.2,1005.9c0-67.8-75.7-123.6-169.4-123.6s-169.4,55.8-169.4,123.6c0,50.8,41.9,94.7,101.6,113.6v171.4
	c0,37.9,30.9,68.8,67.8,68.8c36.9,0,67.8-30.9,67.8-68.8v-171.4C852.4,1100.6,894.2,1056.7,894.2,1005.9L894.2,1005.9z"/>
<path class="st1" d="M1254,840.5c0,222.2-54.8,367.7-166.4,438.5c-111.6,65.8-236.2,99.7-362.7,99.7
	c-139.5,0-256.1-36.9-365.7-109.6c-109.6-70.8-164.4-212.3-164.4-428.5V65.1h168.4c81.7,0,57.8,152.5,57.8,152.5
	S347.1,670,347.1,907.2c0,341.8,377.7,341.8,377.7,341.8s381.7,0,381.7-341.8c0-223.2-77.7-681.6-77.7-681.6s-40.9-160.4,63.8-160.4
	H1254V840.5L1254,840.5L1254,840.5z"/>
<ellipse class="st0" cx="638.1" cy="239.5" rx="42.9" ry="43.8"/>
<ellipse class="st0" cx="811.5" cy="239.5" rx="42.9" ry="43.8"/>
</svg>
